<?xml version="1.0" encoding="utf-8"?>
<!-- Generator: Adobe Illustrator 27.1.1, SVG Export Plug-In . SVG Version: 6.00 Build 0)  -->
<svg version="1.1" id="svg1181" xmlns="http://www.w3.org/2000/svg" xmlns:xlink="http://www.w3.org/1999/xlink" x="0px" y="0px"
	 viewBox="0 0 460.8 80" style="enable-background:new 0 0 460.8 80;" xml:space="preserve">
<style type="text/css">
	.st0{clip-path:url(#SVGID_00000005988650151235310470000010206800961540279227_);}
	.st1{fill:#FFFFFF;}
	.st2{fill:#ED1C24;}
	.st3{fill:none;}
</style>
<g id="layer1">
	<g id="g106">
		<g>
			<defs>
				<rect id="SVGID_1_" x="153.8" y="8.5" width="298.2" height="63.5"/>
			</defs>
			<clipPath id="SVGID_00000054982975684026471260000018260378528315202969_">
				<use xlink:href="#SVGID_1_"  style="overflow:visible;"/>
			</clipPath>
			<g style="clip-path:url(#SVGID_00000054982975684026471260000018260378528315202969_);">
				<g id="g108">
					<g id="g114">
						<path id="path116" class="st1" d="M357.2,28v-7.9h-2v-3.8h2v-5l4.6-1.1v6.1h4.7v3.8h-4.7v7.3c0,1.5,0.5,2.2,1.5,2.2
							c0.6,0,1.4-0.2,2.2-0.6l1.2,3.7c-1.1,0.6-2.2,1-4.6,1C359.2,33.7,357.2,31.9,357.2,28"/>
					</g>
					<g id="g118">
						<path id="path120" class="st1" d="M227,46.8h9.2c6,0,8.7,3.5,8.7,8.3c0,5.5-3.6,8.1-9.1,8.1h-3.9v8.5H227L227,46.8L227,46.8z
							 M235.2,58.8c3.1,0,4.6-1.5,4.6-3.8s-1.6-3.8-4.4-3.8h-3.5v7.6L235.2,58.8L235.2,58.8z"/>
					</g>
					<g id="g122">
						<path id="path124" class="st1" d="M264,54.6v17.2h-4.4v-2.1h-0.1c-1.2,1.5-2.9,2.3-5.1,2.3c-4.7,0-8.2-3.5-8.2-8.8
							s3.5-8.9,8.1-8.9c2,0,3.8,0.7,5,2.2h0.1v-1.9H264L264,54.6z M259.6,63.2c0-2.7-1.8-4.8-4.3-4.8s-4.4,1.9-4.4,4.8
							c0,2.8,1.8,4.7,4.4,4.7C257.6,67.9,259.6,66,259.6,63.2"/>
					</g>
					<g id="g126">
						<path id="path128" class="st1" d="M278,54.3v5c-0.5,0-1,0-1.2,0c-2.9,0-4.4,1.9-4.4,4.5v8h-4.6V54.6h4.6v2.5h0
							c1.3-1.8,3.2-2.8,5.2-2.8C277.8,54.3,277.9,54.3,278,54.3"/>
					</g>
					<g id="g130">
						<path id="path132" class="st1" d="M288.9,69.5l2.2-3.2c1.4,1.3,2.9,2,4.7,2c1.3,0,2.1-0.6,2.1-1.4s-0.9-1.2-3.1-1.9
							c-2.8-0.9-5.3-2.3-5.3-5.6c0-3.1,2.7-5.1,6.2-5.1c2.4,0,4.3,0.6,6.2,2.1l-2.2,3.4c-1.3-1.3-2.9-1.8-4.1-1.8
							c-0.7,0-1.7,0.4-1.7,1.3c0,0.7,0.9,1.2,2.6,1.8c3.7,1.4,5.9,2.2,5.9,5.6c0,3.1-2.2,5.3-6.7,5.3
							C293.1,72,290.8,71.1,288.9,69.5"/>
					</g>
					<g id="g134">
						<path id="path136" class="st1" d="M334.1,46.8v25h-5.1l-11-16.5H318v16.5h-4.9v-25h4.9l11.1,16.9h0V46.8L334.1,46.8
							L334.1,46.8z"/>
					</g>
					<g id="g138">
						<path id="path140" class="st1" d="M354.9,54.6v17.2h-4.4v-2.1h-0.1c-1.2,1.5-2.9,2.3-5.1,2.3c-4.7,0-8.2-3.5-8.2-8.8
							s3.5-8.9,8.1-8.9c2,0,3.8,0.7,5,2.2h0.1v-1.9H354.9L354.9,54.6z M350.5,63.2c0-2.7-1.8-4.8-4.3-4.8s-4.4,1.9-4.4,4.8
							c0,2.8,1.8,4.7,4.4,4.7C348.5,67.9,350.5,66,350.5,63.2"/>
					</g>
					<g id="g142">
						<path id="path144" class="st1" d="M375.1,61.5v10.2h-4.6v-9c0-3.3-1.2-4.3-3.3-4.3c-2.3,0-3.9,1.6-3.9,4.7v8.6h-4.6V54.6h4.6
							v2.2h0.1c1.4-1.7,3.4-2.5,5.5-2.5C372.6,54.3,375.1,56.2,375.1,61.5"/>
					</g>
					<g id="g146">
						<path id="path148" class="st1" d="M407.3,64.6h-12c0.6,2,2.2,3.3,4.4,3.3c1.8,0,3.2-0.8,4.1-1.9l3,2.8c-1.5,1.9-4,3.2-7.4,3.2
							c-5,0-8.8-3.5-8.8-8.9s3.6-8.8,8.5-8.8s8.4,3.7,8.4,8.7C407.4,63.5,407.4,64.3,407.3,64.6 M395.3,61.3h7.5
							c-0.5-1.8-1.7-3-3.7-3C397.3,58.3,395.8,59.4,395.3,61.3"/>
					</g>
					<g id="g150">
						<path id="path152" class="st1" d="M420.6,54.3v5c-0.5,0-1,0-1.2,0c-2.9,0-4.4,1.9-4.4,4.5v8h-4.6V54.6h4.6v2.5h0
							c1.3-1.8,3.2-2.8,5.2-2.8C420.4,54.3,420.6,54.3,420.6,54.3"/>
					</g>
					<g id="g154">
						<path id="path156" class="st1" d="M433.6,54.3v5c-0.5,0-1,0-1.2,0c-2.9,0-4.4,1.9-4.4,4.5v8h-4.6V54.6h4.6v2.5h0
							c1.3-1.8,3.2-2.8,5.2-2.8C433.4,54.3,433.6,54.3,433.6,54.3"/>
					</g>
					<g id="g158">
						<path id="path160" class="st1" d="M451.9,64.6h-12c0.6,2,2.2,3.3,4.4,3.3c1.8,0,3.2-0.8,4.1-1.9l3,2.8c-1.5,1.9-4,3.2-7.4,3.2
							c-5,0-8.8-3.5-8.8-8.9s3.6-8.8,8.5-8.8s8.4,3.7,8.4,8.7C452,63.5,452,64.3,451.9,64.6 M439.9,61.3h7.5c-0.5-1.8-1.7-3-3.7-3
							C441.9,58.3,440.4,59.4,439.9,61.3"/>
					</g>
					<g id="g162">
						<path id="path164" class="st1" d="M226.7,23.1V8.5h4.9v14.3c0,3.6,1.8,6.3,5.1,6.3c3,0,5.2-2.3,5.2-6.3V8.5h4.9v14.6
							c0,6.5-3.7,10.6-10.1,10.6C230.8,33.7,226.7,29.9,226.7,23.1"/>
					</g>
					<g id="g166">
						<path id="path168" class="st1" d="M267.9,23.2v10.2h-4.6v-9c0-3.3-1.2-4.3-3.3-4.3c-2.3,0-3.9,1.6-3.9,4.7v8.6h-4.6V16.3h4.6
							v2.2h0.1c1.4-1.6,3.4-2.5,5.5-2.5C265.3,16,267.9,18,267.9,23.2"/>
					</g>
					<g id="g170">
						<path id="path172" class="st1" d="M297.6,16.3l-6.7,17.1h-4.3l-6.8-17.1h4.9l4,11.5h0l4-11.5L297.6,16.3L297.6,16.3z"/>
					</g>
					<g id="g174">
						<path id="path176" class="st1" d="M315.2,26.3h-12c0.6,2,2.2,3.3,4.4,3.3c1.8,0,3.2-0.8,4.1-1.9l3,2.8c-1.5,1.9-4,3.2-7.4,3.2
							c-5,0-8.8-3.5-8.8-8.9s3.6-8.8,8.5-8.8s8.4,3.6,8.4,8.7C315.3,25.2,315.3,26,315.2,26.3 M303.2,23h7.5c-0.5-1.8-1.7-3-3.7-3
							C305.2,20,303.7,21,303.2,23"/>
					</g>
					<g id="g178">
						<path id="path180" class="st1" d="M329,16v5c-0.5,0-1,0-1.2,0c-2.9,0-4.4,1.9-4.4,4.5v8h-4.6V16.3h4.6v2.5h0
							c1.3-1.8,3.2-2.8,5.2-2.8C328.8,16,329,16,329,16"/>
					</g>
					<g id="g182">
						<path id="path184" class="st1" d="M330.4,31.2l2.2-3.2c1.4,1.3,2.9,2,4.7,2c1.3,0,2.1-0.6,2.1-1.4s-0.9-1.2-3.1-1.9
							c-2.8-1-5.3-2.3-5.3-5.6c0-3.1,2.7-5.1,6.2-5.1c2.4,0,4.3,0.6,6.2,2.1l-2.2,3.4c-1.3-1.3-2.9-1.8-4.1-1.8
							c-0.7,0-1.7,0.4-1.7,1.3c0,0.7,0.9,1.2,2.6,1.8c3.7,1.4,5.9,2.2,5.9,5.5c0,3.1-2.2,5.3-6.7,5.3
							C334.6,33.7,332.3,32.8,330.4,31.2"/>
					</g>
					<g id="g186">
						<path id="path188" class="st1" d="M384.8,26.3h-12c0.6,2,2.2,3.3,4.4,3.3c1.8,0,3.2-0.8,4.1-1.9l3,2.8c-1.5,1.9-4,3.2-7.4,3.2
							c-5,0-8.8-3.5-8.8-8.9s3.6-8.8,8.5-8.8s8.4,3.6,8.4,8.7C384.9,25.2,384.9,26,384.8,26.3 M372.7,23h7.5c-0.5-1.8-1.7-3-3.7-3
							C374.7,20,373.3,21,372.7,23 M378.8,13.9h-4.4l4-5.2l4.8,0L378.8,13.9L378.8,13.9z"/>
					</g>
					<g id="g190">
						<path id="path192" class="st1" d="M272.3,33.4h4.6V17.5l-4.6,1.3V33.4z"/>
					</g>
					<g id="g194">
						<path id="path196" class="st1" d="M271.8,12.4c0-1.6,1.3-2.8,2.9-2.8s2.9,1.3,2.9,2.8s-1.3,2.8-2.9,2.8S271.8,13.9,271.8,12.4
							"/>
					</g>
					<g id="g198">
						<path id="path200" class="st1" d="M347.6,33.4h4.6V17.5l-4.6,1.3V33.4z"/>
					</g>
					<g id="g202">
						<path id="path204" class="st1" d="M347.1,12.4c0-1.6,1.3-2.8,2.9-2.8s2.9,1.3,2.9,2.8s-1.3,2.8-2.9,2.8S347.1,13.9,347.1,12.4
							"/>
					</g>
					<g id="g206">
						<path id="path208" class="st1" d="M281,71.7h4.6V55.8l-4.6,1.3V71.7z"/>
					</g>
					<g id="g210">
						<path id="path212" class="st1" d="M280.5,50.7c0-1.5,1.3-2.8,2.9-2.8s2.9,1.3,2.9,2.8s-1.3,2.8-2.9,2.8S280.5,52.3,280.5,50.7
							"/>
					</g>
					<g id="g214">
						<path id="path216" class="st2" d="M213.2,8.5h-13.7v37.4l13.7-3.9V8.5z"/>
					</g>
					<g id="g218">
						<path id="path220" class="st2" d="M167.4,40.5l12.1,11l16.4-4.7L153.8,8.5v50.4l13.6-3.9L167.4,40.5L167.4,40.5z"/>
					</g>
					<g id="g222">
						<path id="path224" class="st2" d="M214.6,64.1c0,4.4-3.6,7.9-7.9,7.9s-7.9-3.6-7.9-7.9s3.6-7.9,7.9-7.9S214.6,59.7,214.6,64.1
							"/>
					</g>
					<g id="g226">
						<path id="path228" class="st1" d="M379.8,66.3v-7.9h-2v-3.8h2v-5l4.6-1.1v6.1h4.7v3.8h-4.7v7.3c0,1.5,0.5,2.2,1.5,2.2
							c0.6,0,1.4-0.2,2.2-0.6l1.2,3.7c-1.1,0.6-2.2,1.1-4.6,1.1C381.7,72,379.8,70.2,379.8,66.3"/>
					</g>
				</g>
			</g>
		</g>
	</g>
</g>
<g>
	<path class="st2" d="M38.5,7.6L38.5,7.6l17.8,34.6c0,7.3-0.6,12.8-1.8,16.6s-3.5,7-7,9.6c-3.5,2.6-8,3.9-13.5,3.9
		c-5.8,0-10.3-0.9-13.5-2.6s-5.7-4.3-7.4-7.6c-1.7-3.3-2.8-7.5-3.1-12.4l17,0c0.4,2.9,0.2,2.4,0.7,3.7s1.1,2.5,2.1,3.3
		c0.7,0.5,1.6,0.8,2.9,0.8c2,0,3.5-0.8,4.4-2.5s1.4-4.4,1.4-8.3L38.5,7.6L38.5,7.6z"/>
	<path class="st2" d="M82.7,7.6h-8.4v38.6L38.5,7.6l0,0c0.1,8.2,5.3,14.6,7,22.5c0.2,1.2-1.6,6.6-1.8,7.5c0.5,0.5,4.6,9.1,4.9,9.9
		l1.4-2.5l24.4,26.4h8"/>
	<path class="st2" d="M89,39.3v32H76.6L76.1,7.6H89l21.1,29.6l21.1-29.6h14.1v53.2l-13.8,4.2V39.3l-21.4,28.9"/>
</g>
<line class="st3" x1="195.9" y1="46.9" x2="132.5" y2="64.9"/>
</svg>
