<?xml version="1.0" encoding="utf-8"?>
<!-- Generator: Adobe Illustrator 27.0.1, SVG Export Plug-In . SVG Version: 6.00 Build 0)  -->
<svg version="1.1"
	 id="svg1181" xmlns:svg="http://www.w3.org/2000/svg" xmlns:sodipodi="http://sodipodi.sourceforge.net/DTD/sodipodi-0.dtd" xmlns:cc="http://creativecommons.org/ns#" xmlns:rdf="http://www.w3.org/1999/02/22-rdf-syntax-ns#" xmlns:inkscape="http://www.inkscape.org/namespaces/inkscape" xmlns:dc="http://purl.org/dc/elements/1.1/"
	 xmlns="http://www.w3.org/2000/svg" xmlns:xlink="http://www.w3.org/1999/xlink" x="0px" y="0px" viewBox="0 0 504 80"
	 style="enable-background:new 0 0 504 80;" xml:space="preserve">
<style type="text/css">
	.st0{clip-path:url(#SVGID_00000077289942233088084910000003510093059264871335_);}
	.st1{fill:#4E5052;}
	.st2{fill:#ED1C24;}
	.st3{fill:none;stroke:#254093;stroke-miterlimit:10;}
	.st4{fill:none;stroke:#ED1C24;stroke-width:0.25;stroke-miterlimit:10;}
	.st5{fill:none;stroke:#02519E;stroke-miterlimit:10;}
	.st6{fill:none;}
</style>
<sodipodi:namedview  bordercolor="#666666" borderopacity="1.0" fit-margin-bottom="8" fit-margin-left="8" fit-margin-right="8" fit-margin-top="8" id="base" inkscape:current-layer="layer1" inkscape:cx="84.418611" inkscape:cy="16.164127" inkscape:document-units="mm" inkscape:pageopacity="0.0" inkscape:pageshadow="2" inkscape:window-height="821" inkscape:window-maximized="0" inkscape:window-width="784" inkscape:window-x="0" inkscape:window-y="0" inkscape:zoom="3.959798" pagecolor="#ffffff" showgrid="false" units="px">
	</sodipodi:namedview>
<g id="layer1" transform="translate(-54.443122,-110.21891)" inkscape:groupmode="layer" inkscape:label="Calque 1">
	<g id="g106" transform="matrix(0.35277777,0,0,-0.35277777,-59.547842,150.76895)">
		<g>
			<defs>
				<rect id="SVGID_1_" x="1155" y="-30.9" width="298.2" height="63.5"/>
			</defs>
			<clipPath id="SVGID_00000032623647800533700650000017701137695435486627_">
				<use xlink:href="#SVGID_1_"  style="overflow:visible;"/>
			</clipPath>
			<g id="g108" style="clip-path:url(#SVGID_00000032623647800533700650000017701137695435486627_);">
				<g id="g114" transform="translate(481.6837,93.9478)">
					<path id="path116" inkscape:connector-curvature="0" class="st1" d="M976.3-58.4v22.5h-5.8v10.8h5.8v14.1l12.9,3.2v-17.3h13.2
						v-10.8h-13.2v-20.7c0-4.2,1.3-6.2,4.3-6.2c1.6,0,4,0.6,6.2,1.7l3.4-10.5c-3.2-1.7-6.4-3-12.9-3
						C981.8-74.5,976.3-69.3,976.3-58.4"/>
				</g>
				<g id="g118" transform="translate(384.0127,79.8668)">
					<path id="path120" inkscape:connector-curvature="0" class="st1" d="M704.9-97.5h26.2c17.1,0,24.6-10,24.6-23.5
						c0-15.5-10.4-23-25.9-23h-11.1v-24.2h-13.8V-97.5z M728-131.6c8.8,0,13.1,4.3,13.1,10.9c0,6.5-4.4,10.8-12.6,10.8h-9.9v-21.6
						H728z"/>
				</g>
				<g id="g122" transform="translate(411.7186,74.0164)">
					<path id="path124" inkscape:connector-curvature="0" class="st1" d="M781.9-113.8v-48.6h-12.4v5.9h-0.3
						c-3.3-4.3-8.3-6.7-14.5-6.7c-13.4,0-23.2,10-23.2,25c0,14.7,9.9,25.2,22.9,25.2c5.8,0,10.8-2.1,14.2-6.3h0.3v5.5H781.9z
						 M769.4-138.3c0,7.8-5.2,13.6-12.3,13.6c-7,0-12.5-5.3-12.5-13.6c0-7.9,5.2-13.2,12.4-13.2
						C763.9-151.5,769.4-146.2,769.4-138.3"/>
				</g>
				<g id="g126" transform="translate(422.2423,74.2008)">
					<path id="path128" inkscape:connector-curvature="0" class="st1" d="M811.1-113.2v-14.1c-1.3,0.1-2.7,0.1-3.4,0.1
						c-8.1,0-12.4-5.5-12.4-12.7v-22.6h-13.1v48.6h13.1v-7.2h0.1c3.7,5.2,9,8,14.7,8C810.5-113.2,810.9-113.2,811.1-113.2"/>
				</g>
				<g id="g130" transform="translate(430.4125,62.8159)">
					<path id="path132" inkscape:connector-curvature="0" class="st1" d="M833.8-144.9l6.4,9.1c4-3.8,8.2-5.7,13.4-5.7
						c3.8,0,6,1.6,6,4c0,2.3-2.5,3.4-8.9,5.4c-8,2.7-14.9,6.5-14.9,15.8c0,8.8,7.6,14.5,17.5,14.5c6.8,0,12.3-1.8,17.7-6.1l-6.3-9.6
						c-3.8,3.6-8.1,5.2-11.7,5.2c-2.1,0-4.8-1.1-4.8-3.7c0-2,2.6-3.4,7.4-5.2c10.6-3.9,16.7-6.2,16.7-15.7c0-8.7-6.2-15.1-18.9-15.1
						C845.8-152,839.2-149.5,833.8-144.9"/>
				</g>
				<g id="g134" transform="translate(464.3383,79.8668)">
					<path id="path136" inkscape:connector-curvature="0" class="st1" d="M928.1-97.5v-70.7h-14.3l-31.2,46.9h-0.2v-46.9h-13.9v70.7
						h13.9l31.6-47.8h0.1v47.8H928.1z"/>
				</g>
				<g id="g138" transform="translate(479.8951,74.0164)">
					<path id="path140" inkscape:connector-curvature="0" class="st1" d="M971.4-113.8v-48.6H959v5.9h-0.3
						c-3.3-4.3-8.3-6.7-14.5-6.7c-13.4,0-23.2,10-23.2,25c0,14.7,9.9,25.2,22.9,25.2c5.8,0,10.8-2.1,14.2-6.3h0.3v5.5H971.4z
						 M958.9-138.3c0,7.8-5.2,13.6-12.3,13.6c-7,0-12.5-5.3-12.5-13.6c0-7.9,5.2-13.2,12.4-13.2
						C953.3-151.5,958.9-146.2,958.9-138.3"/>
				</g>
				<g id="g142" transform="translate(495.0833,68.7984)">
					<path id="path144" inkscape:connector-curvature="0" class="st1" d="M1013.6-128.3v-28.9h-13.1v25.6c0,9.3-3.3,12.2-9.4,12.2
						c-6.6,0-11.1-4.6-11.1-13.2v-24.5h-13v48.6h13v-6.3h0.2c4,4.7,9.6,7.1,15.5,7.1C1006.3-107.7,1013.6-113.3,1013.6-128.3"/>
				</g>
				<g id="g146" transform="translate(519.2242,66.4792)">
					<path id="path148" inkscape:connector-curvature="0" class="st1" d="M1080.7-134.7h-34.2c1.6-5.8,6.2-9.4,12.4-9.4
						c5.2-0.1,9,2.2,11.7,5.5l8.5-7.9c-4.2-5.3-11.3-9.2-21-9.2c-14.2,0-25,10-25,25.2c0,14.7,10.3,25,24.1,25
						c14.2,0,23.8-10.4,23.8-24.6C1081-131.6,1081-133.9,1080.7-134.7 M1046.6-125.4h21.4c-1.3,5.1-4.8,8.5-10.5,8.5
						C1052.3-116.9,1048.1-119.8,1046.6-125.4"/>
				</g>
				<g id="g150" transform="translate(529.2209,74.2008)">
					<path id="path152" inkscape:connector-curvature="0" class="st1" d="M1108.5-113.2v-14.1c-1.3,0.1-2.7,0.1-3.4,0.1
						c-8.1,0-12.4-5.5-12.4-12.7v-22.6h-13.1v48.6h13.1v-7.2h0.1c3.7,5.2,9,8,14.7,8C1107.9-113.2,1108.3-113.2,1108.5-113.2"/>
				</g>
				<g id="g154" transform="translate(538.9724,74.2008)">
					<path id="path156" inkscape:connector-curvature="0" class="st1" d="M1135.6-113.2v-14.1c-1.3,0.1-2.7,0.1-3.4,0.1
						c-8.1,0-12.4-5.5-12.4-12.7v-22.6h-13v48.6h13v-7.2h0.1c3.7,5.2,9,8,14.7,8C1135-113.2,1135.4-113.2,1135.6-113.2"/>
				</g>
				<g id="g158" transform="translate(552.6768,66.4792)">
					<path id="path160" inkscape:connector-curvature="0" class="st1" d="M1173.7-134.7h-34.2c1.6-5.8,6.2-9.4,12.4-9.4
						c5.2-0.1,9,2.2,11.7,5.5l8.5-7.9c-4.2-5.3-11.3-9.2-21-9.2c-14.2,0-25,10-25,25.2c0,14.7,10.3,25,24.1,25
						c14.2,0,23.8-10.4,23.8-24.6C1174-131.6,1174-133.9,1173.7-134.7 M1139.6-125.4h21.4c-1.3,5.1-4.8,8.5-10.5,8.5
						C1145.3-116.9,1141.1-119.8,1139.6-125.4"/>
				</g>
				<g id="g162" transform="translate(383.7756,97.6375)">
					<path id="path164" inkscape:connector-curvature="0" class="st1" d="M704.2-48.1v41.4h14v-40.5c0-10.2,5.2-17.8,14.4-17.8
						c8.6,0,14.7,6.6,14.7,17.8v40.5h14v-41.4c0-18.4-10.6-30.1-28.8-30.1C715.8-78.2,704.2-67.4,704.2-48.1"/>
				</g>
				<g id="g166" transform="translate(414.6629,97.5321)">
					<path id="path168" inkscape:connector-curvature="0" class="st1" d="M790.1-48.4v-28.9H777v25.6c0,9.3-3.3,12.2-9.4,12.2
						c-6.6,0-11.1-4.6-11.1-13.2v-24.5h-13v48.6h13V-35h0.2c4,4.7,9.6,7.1,15.5,7.1C782.8-27.9,790.1-33.5,790.1-48.4"/>
				</g>
				<g id="g170" transform="translate(436.9853,102.7501)">
					<path id="path172" inkscape:connector-curvature="0" class="st1" d="M852.1-33.9l-19-48.6h-12.2l-19.1,48.6h13.7l11.5-32.7h0.1
						l11.3,32.7H852.1z"/>
				</g>
				<g id="g174" transform="translate(450.1626,95.2129)">
					<path id="path176" inkscape:connector-curvature="0" class="st1" d="M888.7-54.8h-34.2c1.6-5.8,6.2-9.4,12.4-9.4
						c5.2-0.1,9,2.2,11.7,5.5l8.5-7.9c-4.2-5.3-11.3-9.2-21-9.2c-14.2,0-25,10-25,25.2c0,14.7,10.3,25,24.1,25
						c14.2,0,23.8-10.4,23.8-24.6C889-51.8,889-54,888.7-54.8 M854.7-45.5h21.4c-1.3,5.1-4.8,8.5-10.5,8.5
						C860.3-37,856.2-39.9,854.7-45.5"/>
				</g>
				<g id="g178" transform="translate(460.5203,102.9344)">
					<path id="path180" inkscape:connector-curvature="0" class="st1" d="M917.5-33.4v-14.1c-1.3,0.1-2.7,0.1-3.4,0.1
						c-8.1,0-12.4-5.5-12.4-12.7v-22.6h-13v48.6h13v-7.2h0.1c3.7,5.2,9,8,14.7,8C916.9-33.3,917.3-33.3,917.5-33.4"/>
				</g>
				<g id="g182" transform="translate(461.5747,91.5496)">
					<path id="path184" inkscape:connector-curvature="0" class="st1" d="M920.5-65l6.4,9.1c4-3.8,8.2-5.7,13.4-5.7c3.8,0,6,1.6,6,4
						c0,2.3-2.5,3.4-8.9,5.4c-8,2.7-14.9,6.5-14.9,15.8c0,8.8,7.6,14.5,17.5,14.5c6.8,0,12.3-1.8,17.7-6.1l-6.3-9.6
						c-3.8,3.6-8.1,5.2-11.7,5.2c-2.1,0-4.8-1.1-4.8-3.7c0-2,2.6-3.4,7.4-5.2c10.6-3.9,16.7-6.2,16.7-15.7c0-8.7-6.2-15.1-18.9-15.1
						C932.4-72.1,925.8-69.6,920.5-65"/>
				</g>
				<g id="g186" transform="translate(502.3188,95.2129)">
					<path id="path188" inkscape:connector-curvature="0" class="st1" d="M1033.7-54.8h-34.2c1.6-5.8,6.2-9.4,12.4-9.4
						c5.2-0.1,9,2.2,11.7,5.5l8.5-7.9c-4.2-5.3-11.3-9.2-21-9.2c-14.2,0-25,10-25,25.2c0,14.7,10.3,25,24.1,25
						c14.2,0,23.8-10.4,23.8-24.6C1034-51.8,1034-54,1033.7-54.8 M999.6-45.5h21.4c-1.3,5.1-4.8,8.5-10.5,8.5
						C1005.3-37,1001.1-39.9,999.6-45.5 M1016.8-19.6h-12.6l11.3,14.6l13.6,0.1L1016.8-19.6z"/>
				</g>
				<g id="g190" transform="translate(417.9841,89.8894)">
					<path id="path192" inkscape:connector-curvature="0" class="st1" d="M799.3-69.6h13v45.1l-13-3.7V-69.6z"/>
				</g>
				<g id="g194" transform="translate(417.5887,105.6512)">
					<path id="path196" inkscape:connector-curvature="0" class="st1" d="M798.2-25.8c0,4.4,3.7,8,8.1,8c4.5,0,8.2-3.6,8.2-8
						s-3.7-8-8.2-8C801.9-33.8,798.2-30.2,798.2-25.8"/>
				</g>
				<g id="g198" transform="translate(474.436,89.8894)">
					<path id="path200" inkscape:connector-curvature="0" class="st1" d="M956.2-69.6h13v45.1l-13-3.7V-69.6z"/>
				</g>
				<g id="g202" transform="translate(474.0406,105.6512)">
					<path id="path204" inkscape:connector-curvature="0" class="st1" d="M955.1-25.8c0,4.4,3.7,8,8.1,8c4.5,0,8.2-3.6,8.2-8
						s-3.7-8-8.2-8C958.8-33.8,955.1-30.2,955.1-25.8"/>
				</g>
				<g id="g206" transform="translate(424.5093,61.1557)">
					<path id="path208" inkscape:connector-curvature="0" class="st1" d="M817.4-149.5h13.1v45.1l-13.1-3.7V-149.5z"/>
				</g>
				<g id="g210" transform="translate(424.1139,76.9175)">
					<path id="path212" inkscape:connector-curvature="0" class="st1" d="M816.3-105.7c0,4.4,3.7,8,8.1,8c4.5,0,8.2-3.6,8.2-8
						s-3.7-8-8.2-8C820-113.7,816.3-110.1,816.3-105.7"/>
				</g>
				<g id="g214" transform="translate(373.687,108.6005)">
					<path id="path216" inkscape:connector-curvature="0" class="st2" d="M676.2-17.6h-39v-106.1l39,11.1V-17.6z"/>
				</g>
				<g id="g218" transform="translate(339.3273,84.5488)">
					<path id="path220" inkscape:connector-curvature="0" class="st2" d="M580.7-84.5l34.2-31.3l46.4,13.2L542.1,6.4v-142.9l38.6,11
						V-84.5z"/>
				</g>
				<g id="g222" transform="translate(374.6827,66.8996)">
					<path id="path224" inkscape:connector-curvature="0" class="st2" d="M678.9-133.5c0-12.4-10.1-22.5-22.5-22.5
						c-12.4,0-22.5,10.1-22.5,22.5c0,12.4,10.1,22.5,22.5,22.5C668.9-111,678.9-121.1,678.9-133.5"/>
				</g>
				<g id="g226" transform="translate(498.5891,65.2141)">
					<path id="path228" inkscape:connector-curvature="0" class="st1" d="M1023.3-138.2v22.5h-5.8v10.8h5.8v14.1l12.9,3.2V-105h13.2
						v-10.8h-13.2v-20.7c0-4.2,1.3-6.2,4.3-6.2c1.6,0,4,0.6,6.2,1.7l3.4-10.5c-3.2-1.7-6.4-3-12.9-3
						C1028.8-154.4,1023.3-149.2,1023.3-138.2"/>
				</g>
			</g>
		</g>
	</g>
</g>
<g>
	<path class="st2" d="M81.6,7.6L81.6,7.6l17.8,34.6c0,7.3-0.6,12.8-1.7,16.6c-1.2,3.8-3.5,7-7,9.6c-3.5,2.6-8,3.9-13.5,3.9
		c-5.8,0-10.3-0.9-13.5-2.6c-3.2-1.7-5.7-4.3-7.4-7.6c-1.7-3.3-2.8-7.5-3.1-12.4l17,0c0.4,2.9,0.2,2.4,0.7,3.7
		c0.4,1.4,1.1,2.5,2.1,3.3c0.7,0.6,1.7,0.8,2.9,0.8c2,0,3.5-0.8,4.4-2.5c0.9-1.6,1.4-4.4,1.4-8.3V7.6z"/>
	<path class="st2" d="M125.8,7.6h-8.4v38.6L81.6,7.6l0,0c0.1,8.2,5.3,14.6,7,22.5c0.2,1.2-1.6,6.6-1.8,7.5c0.5,0.5,4.6,9.1,4.9,9.9
		l1.4-2.5l24.4,26.3h8"/>
	<path class="st2" d="M132.1,39.3V7.6v63.7h-12.4l-0.5-63.7h12.9l21.1,29.6l21.1-29.6h14.1v53.2l-13.8,4.2V39.3l-21.4,28.9"/>
	<line class="st3" x1="133.1" y1="54.6" x2="133.1" y2="54.6"/>
</g>
<path class="st4" d="M157.5,70.1"/>
<path class="st4" d="M222.6,51.6"/>
<path class="st5" d="M106.4,32.6"/>
<path class="st5" d="M143.2,71.3"/>
<line class="st5" x1="93" y1="57.3" x2="93" y2="57.3"/>
<path class="st5" d="M143,71.3"/>
<path class="st5" d="M106.4,71.3"/>
<line class="st6" x1="239" y1="46.9" x2="175.6" y2="64.9"/>
<line class="st6" x1="117.4" y1="46.2" x2="154.2" y2="46.2"/>
</svg>
