<?xml version="1.0" encoding="UTF-8"?>
<svg id="svg1181" xmlns="http://www.w3.org/2000/svg" xmlns:xlink="http://www.w3.org/1999/xlink" viewBox="0 0 460.84 80">
  <defs>
    <style>
      .cls-1 {
        fill: none;
      }

      .cls-2 {
        clip-path: url(#clippath);
      }

      .cls-3 {
        fill: #ed1c24;
      }

      .cls-4 {
        fill: #4e5052;
      }
    </style>
    <clipPath id="clippath">
      <rect class="cls-1" x="153.84" y="8.46" width="298.18" height="63.54"/>
    </clipPath>
  </defs>
  <g id="layer1">
    <g id="g106">
      <g class="cls-2">
        <g id="g108">
          <g id="g114">
            <path id="path116" class="cls-4" d="M357.25,28v-7.94h-2.04v-3.79h2.04v-4.99l4.57-1.12v6.11h4.67v3.79h-4.67v7.31c0,1.48,.46,2.18,1.51,2.18,.56,0,1.41-.21,2.18-.6l1.19,3.69c-1.12,.6-2.25,1.05-4.57,1.05-2.95,0-4.88-1.83-4.88-5.69"/>
          </g>
          <g id="g118">
            <path id="path120" class="cls-4" d="M227.02,46.77h9.24c6.04,0,8.68,3.51,8.68,8.29,0,5.48-3.65,8.12-9.13,8.12h-3.9v8.54h-4.88v-24.95Zm8.15,12.02c3.09,0,4.64-1.51,4.64-3.83s-1.55-3.79-4.43-3.79h-3.48v7.63h3.27Z"/>
          </g>
          <g id="g122">
            <path id="path124" class="cls-4" d="M263.96,54.57v17.15h-4.36v-2.07h-.11c-1.16,1.51-2.92,2.35-5.13,2.35-4.74,0-8.19-3.51-8.19-8.82s3.48-8.89,8.08-8.89c2.04,0,3.79,.74,5.02,2.21h.11v-1.93h4.57Zm-4.39,8.64c0-2.74-1.83-4.81-4.32-4.81s-4.43,1.86-4.43,4.81c0,2.78,1.83,4.67,4.39,4.67,2.39,0,4.36-1.86,4.36-4.67"/>
          </g>
          <g id="g126">
            <path id="path128" class="cls-4" d="M277.99,54.33v4.99c-.46-.03-.95-.03-1.19-.03-2.85,0-4.39,1.93-4.39,4.46v7.98h-4.6v-17.15h4.6v2.53h.03c1.3-1.83,3.16-2.81,5.2-2.81,.14,0,.28,0,.35,.03"/>
          </g>
          <g id="g130">
            <path id="path132" class="cls-4" d="M288.89,69.51l2.25-3.2c1.41,1.33,2.88,2,4.74,2,1.33,0,2.11-.56,2.11-1.41s-.88-1.19-3.13-1.9c-2.81-.95-5.27-2.28-5.27-5.59,0-3.09,2.67-5.13,6.18-5.13,2.39,0,4.32,.63,6.25,2.14l-2.21,3.37c-1.33-1.26-2.85-1.83-4.11-1.83-.74,0-1.69,.39-1.69,1.3,0,.7,.91,1.19,2.6,1.83,3.72,1.37,5.9,2.18,5.9,5.55,0,3.06-2.18,5.34-6.68,5.34-2.74,0-5.06-.88-6.96-2.49"/>
          </g>
          <g id="g134">
            <path id="path136" class="cls-4" d="M334.12,46.77v24.95h-5.06l-11-16.55h-.07v16.55h-4.92v-24.95h4.92l11.14,16.87h.03v-16.87h4.95Z"/>
          </g>
          <g id="g138">
            <path id="path140" class="cls-4" d="M354.86,54.57v17.15h-4.36v-2.07h-.11c-1.16,1.51-2.92,2.35-5.13,2.35-4.74,0-8.19-3.51-8.19-8.82s3.48-8.89,8.08-8.89c2.04,0,3.79,.74,5.02,2.21h.11v-1.93h4.57Zm-4.39,8.64c0-2.74-1.83-4.81-4.32-4.81s-4.43,1.86-4.43,4.81c0,2.78,1.83,4.67,4.39,4.67,2.39,0,4.36-1.86,4.36-4.67"/>
          </g>
          <g id="g142">
            <path id="path144" class="cls-4" d="M375.12,61.53v10.19h-4.6v-9.03c0-3.27-1.16-4.29-3.3-4.29-2.32,0-3.9,1.62-3.9,4.67v8.64h-4.6v-17.15h4.6v2.21h.07c1.41-1.65,3.37-2.49,5.48-2.49,3.69,0,6.25,1.97,6.25,7.24"/>
          </g>
          <g id="g146">
            <path id="path148" class="cls-4" d="M407.3,64.62h-12.05c.56,2.04,2.18,3.3,4.39,3.3,1.83,.03,3.16-.77,4.11-1.93l2.99,2.78c-1.48,1.86-3.97,3.23-7.41,3.23-5.03,0-8.82-3.51-8.82-8.89s3.62-8.82,8.5-8.82,8.4,3.65,8.4,8.68c0,.56,0,1.37-.11,1.65m-12.02-3.3h7.55c-.46-1.79-1.69-2.99-3.69-2.99-1.86,0-3.34,1.02-3.87,2.99"/>
          </g>
          <g id="g150">
            <path id="path152" class="cls-4" d="M420.63,54.33v4.99c-.46-.03-.95-.03-1.19-.03-2.85,0-4.39,1.93-4.39,4.46v7.98h-4.6v-17.15h4.6v2.53h.03c1.3-1.83,3.16-2.81,5.2-2.81,.14,0,.28,0,.35,.03"/>
          </g>
          <g id="g154">
            <path id="path156" class="cls-4" d="M433.63,54.33v4.99c-.46-.03-.95-.03-1.19-.03-2.85,0-4.39,1.93-4.39,4.46v7.98h-4.6v-17.15h4.6v2.53h.03c1.3-1.83,3.16-2.81,5.2-2.81,.14,0,.28,0,.35,.03"/>
          </g>
          <g id="g158">
            <path id="path160" class="cls-4" d="M451.91,64.62h-12.05c.56,2.04,2.18,3.3,4.39,3.3,1.83,.03,3.16-.77,4.11-1.93l2.99,2.78c-1.48,1.86-3.97,3.23-7.41,3.23-5.03,0-8.82-3.51-8.82-8.89s3.62-8.82,8.5-8.82,8.4,3.65,8.4,8.68c0,.56,0,1.37-.11,1.65m-12.02-3.3h7.55c-.46-1.79-1.69-2.99-3.69-2.99-1.86,0-3.34,1.02-3.87,2.99"/>
          </g>
          <g id="g162">
            <path id="path164" class="cls-4" d="M226.71,23.08V8.46h4.95v14.3c0,3.58,1.83,6.29,5.09,6.29,3.02,0,5.2-2.32,5.2-6.29V8.46h4.95v14.62c0,6.5-3.72,10.61-10.15,10.61-5.97,0-10.05-3.79-10.05-10.61"/>
          </g>
          <g id="g166">
            <path id="path168" class="cls-4" d="M267.89,23.22v10.19h-4.6v-9.03c0-3.27-1.16-4.29-3.3-4.29-2.32,0-3.9,1.62-3.9,4.67v8.64h-4.6V16.26h4.6v2.21h.07c1.41-1.65,3.37-2.49,5.48-2.49,3.69,0,6.25,1.97,6.25,7.24"/>
          </g>
          <g id="g170">
            <path id="path172" class="cls-4" d="M297.65,16.26l-6.71,17.15h-4.32l-6.75-17.15h4.85l4.04,11.53h.04l3.97-11.53h4.88Z"/>
          </g>
          <g id="g174">
            <path id="path176" class="cls-4" d="M315.22,26.31h-12.05c.56,2.04,2.18,3.3,4.39,3.3,1.83,.03,3.16-.77,4.11-1.93l2.99,2.78c-1.48,1.86-3.97,3.23-7.41,3.23-5.03,0-8.82-3.51-8.82-8.89s3.62-8.82,8.5-8.82,8.4,3.65,8.4,8.68c0,.56,0,1.37-.11,1.65m-12.02-3.3h7.55c-.46-1.79-1.69-2.99-3.69-2.99-1.86,0-3.34,1.02-3.87,2.99"/>
          </g>
          <g id="g178">
            <path id="path180" class="cls-4" d="M329.03,16.01v4.99c-.46-.03-.95-.03-1.19-.03-2.85,0-4.39,1.93-4.39,4.46v7.98h-4.6V16.26h4.6v2.53h.03c1.3-1.83,3.16-2.81,5.2-2.81,.14,0,.28,0,.35,.03"/>
          </g>
          <g id="g182">
            <path id="path184" class="cls-4" d="M330.44,31.19l2.25-3.2c1.41,1.33,2.88,2,4.74,2,1.33,0,2.11-.56,2.11-1.41s-.88-1.19-3.13-1.9c-2.81-.95-5.27-2.28-5.27-5.59,0-3.09,2.67-5.13,6.18-5.13,2.39,0,4.32,.63,6.25,2.14l-2.21,3.37c-1.33-1.26-2.85-1.83-4.11-1.83-.74,0-1.69,.39-1.69,1.3,0,.7,.91,1.19,2.6,1.83,3.73,1.37,5.9,2.18,5.9,5.55,0,3.06-2.18,5.34-6.68,5.34-2.74,0-5.06-.88-6.96-2.49"/>
          </g>
          <g id="g186">
            <path id="path188" class="cls-4" d="M384.76,26.31h-12.05c.56,2.04,2.18,3.3,4.39,3.3,1.83,.03,3.16-.77,4.11-1.93l2.99,2.78c-1.48,1.86-3.97,3.23-7.41,3.23-5.03,0-8.82-3.51-8.82-8.89s3.62-8.82,8.5-8.82,8.4,3.65,8.4,8.68c0,.56,0,1.37-.11,1.65m-12.02-3.3h7.55c-.46-1.79-1.69-2.99-3.69-2.99-1.86,0-3.34,1.02-3.87,2.99m6.04-9.14h-4.43l3.97-5.17,4.81-.04-4.36,5.2Z"/>
          </g>
          <g id="g190">
            <path id="path192" class="cls-4" d="M272.32,33.41h4.6v-15.92l-4.6,1.31v14.61Z"/>
          </g>
          <g id="g194">
            <path id="path196" class="cls-4" d="M271.79,12.39c0-1.55,1.3-2.81,2.85-2.81s2.88,1.27,2.88,2.81-1.3,2.81-2.88,2.81-2.85-1.26-2.85-2.81"/>
          </g>
          <g id="g198">
            <path id="path200" class="cls-4" d="M347.59,33.41h4.6v-15.92l-4.6,1.31v14.61Z"/>
          </g>
          <g id="g202">
            <path id="path204" class="cls-4" d="M347.06,12.39c0-1.55,1.3-2.81,2.85-2.81s2.88,1.27,2.88,2.81-1.3,2.81-2.88,2.81-2.85-1.26-2.85-2.81"/>
          </g>
          <g id="g206">
            <path id="path208" class="cls-4" d="M281.02,71.72h4.6v-15.92l-4.6,1.31v14.61Z"/>
          </g>
          <g id="g210">
            <path id="path212" class="cls-4" d="M280.49,50.7c0-1.55,1.3-2.81,2.85-2.81s2.88,1.27,2.88,2.81-1.3,2.81-2.88,2.81-2.85-1.26-2.85-2.81"/>
          </g>
          <g id="g214">
            <path id="path216" class="cls-3" d="M213.25,8.46h-13.74V45.9l13.74-3.91V8.46Z"/>
          </g>
          <g id="g218">
            <path id="path220" class="cls-3" d="M167.44,40.53l12.08,11.05,16.37-4.65L153.84,8.46V58.88l13.61-3.87v-14.48Z"/>
          </g>
          <g id="g222">
            <path id="path224" class="cls-3" d="M214.58,64.06c0,4.39-3.55,7.94-7.94,7.94s-7.94-3.55-7.94-7.94,3.55-7.94,7.94-7.94,7.94,3.56,7.94,7.94"/>
          </g>
          <g id="g226">
            <path id="path228" class="cls-4" d="M379.79,66.31v-7.94h-2.04v-3.79h2.04v-4.99l4.57-1.12v6.11h4.67v3.79h-4.67v7.31c0,1.48,.46,2.18,1.51,2.18,.56,0,1.41-.21,2.18-.6l1.19,3.69c-1.12,.6-2.25,1.05-4.57,1.05-2.95,0-4.88-1.83-4.88-5.69"/>
          </g>
        </g>
      </g>
    </g>
  </g>
  <g>
    <path class="cls-3" d="M38.45,7.62h0l17.84,34.59c0,7.26-.58,12.79-1.75,16.58-1.17,3.79-3.51,7-7.03,9.64-3.52,2.63-8.03,3.95-13.54,3.95-5.82,0-10.32-.87-13.52-2.61-3.2-1.74-5.66-4.28-7.41-7.62-1.74-3.34-2.77-7.48-3.08-12.4l17.01-.03c.35,2.87,.25,2.36,.67,3.72,.42,1.36,1.13,2.46,2.12,3.3,.68,.55,1.65,.83,2.91,.83,1.99,0,3.45-.82,4.38-2.45,.93-1.63,1.39-4.39,1.39-8.27V7.62Z"/>
    <path class="cls-3" d="M82.69,7.62h-8.43V46.21L38.45,7.62h0c.14,8.18,5.3,14.61,6.98,22.48,.25,1.17-1.64,6.57-1.81,7.52,.54,.51,4.56,9.11,4.87,9.86l1.39-2.53,24.39,26.35h8.01"/>
    <path class="cls-3" d="M88.99,39.28v32.01h-12.41l-.52-63.67h12.93l21.1,29.64,21.08-29.64h14.12V60.78l-13.78,4.16v-25.65s-21.42,28.86-21.42,28.86"/>
  </g>
  <line class="cls-1" x1="195.88" y1="46.93" x2="132.51" y2="64.94"/>
</svg>